<?xml version="1.0" standalone="no"?>
<!DOCTYPE svg PUBLIC "-//W3C//DTD SVG 20010904//EN"
 "http://www.w3.org/TR/2001/REC-SVG-20010904/DTD/svg10.dtd">
<svg version="1.0" xmlns="http://www.w3.org/2000/svg"
 width="300.000000pt" height="144.000000pt" viewBox="0 0 300.000000 144.000000"
 preserveAspectRatio="xMidYMid meet">
<metadata>
Created by potrace 1.10, written by Peter Selinger 2001-2011
</metadata>
<g transform="translate(0.000000,144.000000) scale(0.100000,-0.100000)"
fill="#000000" stroke="none">
<path d="M1308 1083 c-45 -48 -110 -134 -105 -140 3 -2 34 12 69 32 42 23 78
35 103 35 l38 0 -6 38 c-6 32 -36 72 -56 72 -4 0 -23 -17 -43 -37z"/>
<path d="M1540 1100 c-12 -7 -12 -12 -2 -22 17 -17 15 -55 -4 -62 -9 -3 -31
-6 -49 -6 -37 0 -48 -9 -36 -29 6 -10 20 -11 51 -6 42 7 43 6 37 -16 -4 -13
-7 -29 -7 -36 0 -17 -58 -27 -75 -13 -24 20 -31 -17 -12 -66 9 -26 12 -46 6
-49 -5 -4 -9 -15 -9 -27 0 -16 5 -19 23 -15 103 26 167 38 192 35 42 -3 51 5
85 72 35 69 36 81 12 103 -24 22 -39 21 -47 -2 -4 -13 -19 -20 -53 -25 -26 -3
-60 -9 -76 -13 l-29 -6 29 41 c24 34 36 41 74 47 82 11 100 16 100 30 0 8 -9
19 -20 25 -15 8 -27 6 -52 -10 -43 -26 -68 -26 -68 0 0 19 -32 60 -47 60 -5 0
-15 -5 -23 -10z m145 -222 c-9 -31 -18 -44 -34 -46 -18 -3 -21 1 -21 36 0 35
4 42 28 50 38 13 42 8 27 -40z m-87 -11 c4 -30 -12 -57 -33 -57 -17 0 -28 72
-12 82 22 14 42 3 45 -25z m-80 -20 c2 -16 1 -36 -2 -44 -6 -14 -9 -14 -26 2
-20 18 -27 55 -13 69 15 15 38 0 41 -27z"/>
<path d="M613 1093 c-22 -8 -14 -20 33 -48 25 -15 42 -31 37 -35 -4 -5 -55
-16 -113 -25 -124 -18 -163 -25 -168 -29 -7 -8 22 -56 34 -56 8 0 43 11 80 25
36 14 70 22 75 19 33 -20 -25 -208 -80 -258 -12 -11 -21 -25 -21 -33 0 -20 55
10 91 50 38 42 97 221 81 247 -10 16 -7 18 25 22 21 3 37 0 39 -7 3 -6 4 -52
2 -101 -3 -88 -3 -89 -28 -86 l-25 3 23 -18 c12 -10 26 -32 31 -48 9 -34 33
-36 66 -4 18 18 20 32 19 136 0 80 -4 118 -12 121 -7 2 -12 8 -12 13 0 16 120
11 136 -6 18 -18 60 -20 70 -4 3 6 -7 25 -24 42 -30 29 -32 30 -69 18 -21 -7
-58 -11 -83 -9 -38 3 -45 6 -48 26 -6 38 -107 67 -159 45z"/>
<path d="M2097 1093 c-16 -15 -6 -43 17 -49 13 -3 34 -17 47 -30 25 -27 57
-32 65 -10 8 22 -24 76 -52 86 -29 12 -68 13 -77 3z"/>
<path d="M2406 1071 c-91 -27 -103 -35 -87 -60 8 -13 22 -11 90 13 45 16 88
26 96 22 12 -4 15 -32 15 -166 0 -150 -1 -160 -19 -160 -26 0 -155 68 -181 95
-20 21 -20 25 -7 52 8 15 24 37 36 47 28 25 27 46 -3 46 -31 0 -86 -20 -86
-31 0 -12 17 -11 41 1 24 13 24 9 -2 -35 -17 -29 -24 -33 -35 -24 -21 17 -29
3 -15 -25 12 -22 9 -29 -49 -100 -61 -75 -94 -104 -104 -88 -2 4 -1 72 2 151
6 128 5 144 -10 152 -10 5 -19 5 -22 0 -11 -17 -19 -467 -10 -484 9 -15 12
-15 29 -3 15 11 18 25 17 73 -2 55 1 62 32 92 32 31 35 32 44 15 5 -11 12 -36
16 -56 8 -47 17 -52 52 -33 33 17 70 19 79 5 12 -20 21 -9 40 47 24 76 24 76
41 62 13 -10 62 -7 100 8 11 4 14 -10 14 -75 0 -101 -4 -110 -38 -104 l-26 5
27 -32 c15 -18 27 -39 27 -47 0 -24 39 -15 57 13 16 24 18 53 15 302 -3 288
-5 305 -30 334 -20 22 -38 21 -146 -12z m-78 -352 c-7 -4 -32 -10 -55 -14 -24
-4 -43 -11 -43 -17 0 -10 44 -7 88 7 19 6 22 4 22 -22 0 -43 -19 -61 -71 -68
-45 -7 -47 -6 -58 26 -17 48 -14 57 26 110 l37 49 33 -32 c23 -23 29 -34 21
-39z"/>
<path d="M2201 923 c-7 -15 -26 -44 -43 -65 -17 -22 -27 -42 -24 -46 21 -20
124 92 113 122 -10 25 -32 19 -46 -11z"/>
<path d="M841 930 c-13 -8 77 -123 104 -134 23 -9 41 37 27 68 -18 41 -103 84
-131 66z"/>
<path d="M1276 873 c-52 -63 -101 -141 -93 -149 3 -3 24 11 46 32 23 20 44 35
46 32 3 -3 0 -36 -6 -74 -6 -38 -14 -117 -16 -175 -4 -87 -2 -107 11 -118 36
-30 44 -9 48 146 4 108 9 158 21 185 22 49 21 58 -4 58 -31 0 -17 23 20 32 17
5 35 16 38 24 6 16 -33 64 -52 64 -6 0 -32 -26 -59 -57z"/>
<path d="M500 895 c0 -8 -20 -36 -45 -62 -25 -25 -43 -48 -41 -50 2 -3 34 9
70 26 36 17 70 31 76 31 19 0 10 39 -12 54 -28 20 -48 20 -48 1z"/>
<path d="M1660 745 c-30 -7 -100 -20 -155 -30 -139 -24 -145 -25 -145 -41 0
-19 33 -18 125 6 42 11 119 23 171 26 68 5 94 11 94 20 0 24 -33 31 -90 19z"/>
<path d="M662 682 c-17 -2 -22 -9 -20 -24 3 -20 -7 -23 -127 -44 -175 -30
-190 -37 -141 -69 21 -14 29 -14 87 4 135 40 173 50 178 46 7 -8 -18 -49 -65
-106 -24 -30 -44 -57 -44 -62 0 -4 17 1 38 12 46 23 118 100 137 145 12 27 21
34 52 40 55 9 122 7 172 -5 42 -9 71 -1 71 22 0 33 -88 67 -104 40 -10 -15
-169 -36 -174 -22 -6 17 -34 28 -60 23z"/>
<path d="M1720 666 c0 -17 63 -66 84 -66 26 0 19 45 -9 64 -30 20 -75 21 -75
2z"/>
<path d="M1575 631 c-10 -17 4 -50 27 -62 16 -9 23 -8 29 2 15 24 10 49 -9 49
-10 0 -23 5 -29 11 -8 8 -13 8 -18 0z"/>
<path d="M1470 594 c0 -31 51 -125 81 -147 35 -25 126 -36 184 -22 74 19 113
75 53 75 -12 0 -32 10 -45 22 -27 25 -44 17 -20 -10 28 -31 21 -42 -26 -42
-91 0 -141 29 -209 122 -17 22 -17 22 -18 2z"/>
<path d="M1380 566 c-15 -40 -12 -82 6 -100 25 -25 37 -9 29 38 -4 22 -8 49
-9 58 -4 30 -15 32 -26 4z"/>
<path d="M786 561 c-3 -5 2 -15 10 -22 9 -8 27 -30 39 -50 32 -49 53 -69 76
-69 20 0 25 31 13 78 -11 40 -121 91 -138 63z"/>
</g>
</svg>
